HIERARCHY
ROOT Pelvis
{
	OFFSET 0.000000 0.000000 0.000000
	CHANNELS 6 Xposition Yposition Zposition Zrotation Yrotation Xrotation 
	JOINT Left_hip
	{
		OFFSET 0.070241 -0.085575 -0.010474
		CHANNELS 3 Zrotation Yrotation Xrotation
		JOINT Left_knee
		{
			OFFSET 0.032125 -0.356873 -0.000555
			CHANNELS 3 Zrotation Yrotation Xrotation
			JOINT Left_ankle
			{
				OFFSET -0.010961 -0.370212 -0.042278
				CHANNELS 3 Zrotation Yrotation Xrotation
				JOINT Left_foot
				{
					OFFSET 0.023322 -0.052281 0.110104
					CHANNELS 3 Zrotation Yrotation Xrotation
					End Site
					{
						OFFSET 0.000000 0.000000 0.000000
					}
				}
			}
		}
	}
	JOINT Right_hip
	{
		OFFSET -0.068518 -0.084320 -0.007402
		CHANNELS 3 Zrotation Yrotation Xrotation
		JOINT Right_knee
		{
			OFFSET -0.037345 -0.364815 -0.003619
			CHANNELS 3 Zrotation Yrotation Xrotation
			JOINT Right_ankle
			{
				OFFSET 0.013394 -0.370006 -0.039954
				CHANNELS 3 Zrotation Yrotation Xrotation
				JOINT Right_foot
				{
					OFFSET -0.019600 -0.045455 0.113223
					CHANNELS 3 Zrotation Yrotation Xrotation
					End Site
					{
						OFFSET 0.000000 0.000000 0.000000
					}
				}
			}
		}
	}
	JOINT Spine1
	{
		OFFSET -0.002404 0.098129 -0.018169
		CHANNELS 3 Zrotation Yrotation Xrotation
		JOINT Spine2
		{
			OFFSET 0.003989 0.127209 -0.001742
			CHANNELS 3 Zrotation Yrotation Xrotation
			JOINT Spine3
			{
				OFFSET 0.001758 0.046641 0.023475
				CHANNELS 3 Zrotation Yrotation Xrotation
				JOINT Neck
				{
					OFFSET -0.003759 0.194901 -0.039982
					CHANNELS 3 Zrotation Yrotation Xrotation
					JOINT Head
					{
						OFFSET 0.003999 0.063756 0.047665
						CHANNELS 3 Zrotation Yrotation Xrotation
						End Site
						{
							OFFSET 0.000000 0.000000 0.000000
						}
					}
				}
				JOINT Left_collar
				{
					OFFSET 0.071816 0.109048 -0.028973
					CHANNELS 3 Zrotation Yrotation Xrotation
					JOINT Left_shoulder
					{
						OFFSET 0.084027 0.032269 -0.006525
						CHANNELS 3 Zrotation Yrotation Xrotation
						JOINT Left_elbow
						{
							OFFSET 0.243854 -0.013992 -0.025905
							CHANNELS 3 Zrotation Yrotation Xrotation
							JOINT Left_wrist
							{
								OFFSET 0.232156 0.008196 -0.000339
								CHANNELS 3 Zrotation Yrotation Xrotation
								JOINT Left_palm
								{
									OFFSET 0.075377 -0.009461 -0.012494
									CHANNELS 3 Zrotation Yrotation Xrotation
									End Site
									{
										OFFSET 0.000000 0.000000 0.000000
									}
								}
							}
						}
					}
				}
				JOINT Right_collar
				{
					OFFSET -0.073768 0.107001 -0.033755
					CHANNELS 3 Zrotation Yrotation Xrotation
					JOINT Right_shoulder
					{
						OFFSET -0.086837 0.032868 -0.009431
						CHANNELS 3 Zrotation Yrotation Xrotation
						JOINT Right_elbow
						{
							OFFSET -0.236446 -0.012544 -0.018747
							CHANNELS 3 Zrotation Yrotation Xrotation
							JOINT Right_wrist
							{
								OFFSET -0.236110 0.006124 -0.004327
								CHANNELS 3 Zrotation Yrotation Xrotation
								JOINT Right_palm
								{
									OFFSET -0.074800 -0.006875 -0.009610
									CHANNELS 3 Zrotation Yrotation Xrotation
									End Site
									{
										OFFSET 0.000000 0.000000 0.000000
									}
								}
							}
						}
					}
				}
			}
		}
	}
}
MOTION
Frames: 16
Frame Time: 0.100000
0.000000 0.000000 0.000000 176.645004 17.798922 -9.486350 1.655540 7.828053 0.571932 0.483885 -1.685636 -4.119556 -3.764631 25.367403 -1.931708 9.727770 -4.825819 -0.811833 0.159916 -5.120055 -1.276106 -0.457895 5.775944 -1.550030 -0.477856 -20.239889 -1.015754 7.282069 6.942566 6.532136 0.198514 2.115784 -1.573457 1.537748 -1.586071 -4.999359 -0.749484 1.902109 -1.353135 -1.166886 -2.472313 8.505655 0.909363 -1.973921 6.781228 -5.355624 11.913563 -11.383718 6.553921 -14.955636 -14.654195 4.025853 3.116658 -8.758629 -1.955911 -5.286397 31.308352 -0.853609 -7.216290 -1.360918 9.997075 -6.817940 -7.633847 -4.992950 9.304160 -16.188133 -9.548684 -6.285883 -5.238553 -1.449182 1.747898 34.318457 6.179540 8.638155 -3.713741 
-0.000629 -0.000268 0.002789 176.671964 17.713855 -9.330986 1.677914 7.712659 0.598944 0.497388 -1.213095 -4.058352 -3.810821 25.003389 -2.120308 10.086739 -4.538387 -0.847141 0.223072 -4.983157 -1.087993 -0.605158 5.358803 -1.895067 -0.925711 -19.820033 -0.857628 8.158442 6.597949 6.692998 0.130970 2.085347 -1.578506 1.678316 -1.311233 -4.769544 -1.056558 1.834502 -1.660182 -0.052038 -2.471455 8.970291 0.077570 -2.291813 8.370963 -6.459521 14.493603 -12.066776 4.730340 -15.983339 -13.376847 5.750040 0.876193 -8.836837 -0.611641 -5.944155 31.287862 -0.765916 -7.106169 -0.721910 11.390806 -8.614320 -7.979263 -3.615574 10.741275 -14.252526 -10.275085 -5.469724 -3.581188 -2.456439 2.260560 35.233159 5.694034 8.867742 -3.125387 
-0.001003 -0.000392 0.005088 176.705330 18.105387 -9.254518 1.663040 7.616798 0.651305 0.438939 -1.167246 -4.138686 -4.066165 24.761829 -2.219784 10.749069 -4.555445 -0.852144 0.162052 -4.943793 -0.746701 -0.679942 4.951189 -2.322588 -1.146485 -19.738939 -0.859686 8.215349 6.413914 6.813543 0.082095 1.999762 -1.710179 1.763166 -1.364634 -4.376378 -1.331271 1.694757 -1.875500 0.186132 -2.845289 9.599054 -0.389860 -2.150092 9.840320 -7.797622 16.068148 -12.239005 3.167210 -16.767414 -12.212192 6.668891 -0.325260 -8.596808 0.191145 -6.442862 30.753799 -0.956374 -7.030306 -0.381381 12.736140 -9.800067 -8.527471 -2.343431 11.879384 -13.390053 -10.496523 -5.017605 -4.741323 -3.115479 2.790993 34.080980 5.686510 8.907518 -2.517364 
-0.000967 -0.000512 0.006574 176.660057 18.888230 -9.244988 1.640281 7.492816 0.593301 0.416904 -1.411416 -4.130249 -4.067715 24.380451 -2.146099 10.547055 -4.326704 -0.808103 0.118103 -5.123755 -0.498354 -0.717117 4.558924 -2.495928 -1.304299 -19.899778 -0.996208 8.217606 6.224223 7.144768 0.112814 1.972468 -1.721401 1.722579 -1.520965 -4.303890 -1.358758 1.583318 -1.793437 -0.125726 -3.213497 10.000583 -0.571383 -2.176803 10.311405 -8.262198 15.744471 -12.122101 1.845422 -17.228797 -11.983541 6.702647 0.670204 -9.379132 0.153560 -6.111850 30.388158 -1.166094 -7.065535 -0.353567 12.964346 -9.848300 -8.620556 -1.537177 11.762510 -13.353320 -10.830608 -5.661059 -5.543795 -3.234701 2.534384 33.916310 5.992333 9.024286 -2.628909 
-0.000689 -0.000515 0.007302 176.660706 19.514540 -9.103190 1.564359 7.382380 0.439454 0.414119 -1.626868 -4.235358 -4.148026 24.112137 -2.028808 10.490636 -4.212097 -0.776374 0.069813 -5.264752 -0.516999 -0.744826 4.245896 -2.546070 -1.466598 -20.066461 -1.072935 8.300810 6.122104 7.318320 0.170617 1.935077 -1.661497 1.579764 -1.617735 -4.207591 -1.414862 1.549850 -1.817703 -0.253073 -3.455605 10.045459 -0.459488 -2.047575 10.250657 -8.664472 15.286753 -11.960758 1.189280 -17.283310 -11.345352 6.628914 0.256275 -8.944517 0.048847 -6.170999 30.186260 -1.469376 -7.184992 -0.495859 12.890854 -9.764463 -8.498703 -1.332466 11.356392 -13.199188 -10.793386 -5.321101 -5.550312 -3.122664 2.553657 33.643238 6.294494 9.183674 -2.786902 
-0.000128 -0.000586 0.008415 176.674442 19.761314 -9.070731 1.574038 7.350538 0.442231 0.434388 -1.696264 -4.267842 -4.261740 23.956767 -2.008555 10.547325 -4.136140 -0.745432 0.086311 -5.317985 -0.381483 -0.771980 4.084518 -2.701595 -1.601174 -20.071770 -1.110244 8.459667 6.044074 7.469408 0.187463 1.983411 -1.746050 1.487918 -1.625564 -3.912739 -1.477267 1.595545 -1.931508 -0.339463 -3.654452 10.226548 -0.452187 -2.136112 10.213861 -9.024422 14.890662 -11.875320 0.810763 -17.480789 -10.906626 6.651911 -0.337243 -8.756307 0.184052 -6.370942 29.983865 -1.712879 -7.251992 -0.639828 12.958577 -9.426659 -8.370663 -1.351621 11.360509 -13.181502 -10.831524 -5.120905 -5.738312 -3.362295 2.759542 33.467228 6.495291 9.248770 -2.851499 
0.000593 -0.000495 0.009524 176.704566 19.808329 -9.269013 1.628436 7.357402 0.680594 0.472915 -1.667648 -4.201634 -4.373480 23.797482 -2.065732 10.632776 -4.016695 -0.832574 0.066345 -5.320343 -0.026124 -0.744815 3.885935 -2.818686 -1.646623 -19.882452 -1.205713 8.508313 5.972217 7.614530 0.168728 2.105002 -1.854813 1.465972 -1.541277 -3.287485 -1.517923 1.677740 -1.972110 -0.335976 -3.714133 10.412500 -0.498598 -2.315810 9.879258 -9.637982 14.701631 -11.639115 -0.488541 -17.599745 -10.128937 7.112324 -1.620451 -9.103163 1.361728 -7.231937 28.772663 -2.176836 -7.172750 -0.762030 13.344517 -9.126255 -8.153829 -0.439064 11.319135 -12.958140 -11.214052 -4.392145 -6.932938 -4.531596 3.645810 32.001178 6.854380 9.112478 -2.609537 
0.001598 0.000247 0.009778 176.764059 20.289663 -9.574052 1.599532 7.176522 0.794040 0.517222 -1.361262 -3.887094 -4.050647 22.896749 -1.867140 9.698469 -3.305154 -1.287117 -0.067661 -5.230241 0.301405 -0.674987 3.031849 -2.639111 -1.972680 -19.481111 -1.540415 8.895183 5.935326 8.390095 0.186993 2.152410 -1.729701 1.373241 -1.426003 -2.459248 -1.671581 1.623562 -1.683317 -0.039835 -3.800930 9.635738 -0.802451 -2.635071 9.434689 -11.699867 14.885553 -10.786482 -6.570009 -17.000246 -7.527412 9.927624 -6.393779 -15.060920 8.966539 -9.862001 18.947329 -3.829656 -6.432447 0.320258 14.659729 -9.450754 -7.290296 5.508035 10.037715 -10.706591 -13.181467 0.075912 -11.839915 -12.084775 6.545727 23.516231 8.222773 8.433784 -1.015966 
0.003353 0.002539 0.009111 176.949977 21.007453 -9.876032 1.496980 6.819060 0.907623 0.451451 -0.305481 -3.646402 -3.390985 20.903668 -1.567470 8.642753 -1.694368 -2.041095 -0.371785 -4.908537 0.637833 -0.567270 1.226928 -2.431669 -2.183686 -18.386115 -2.369520 8.306599 5.547873 9.683192 0.069838 2.331158 -1.977257 1.245518 -1.309335 0.278606 -2.110962 1.454007 -2.300756 0.910985 -3.960769 7.890654 -1.194501 -3.258247 9.579456 -17.301026 15.640707 -9.451697 -18.601592 -15.273038 -1.028844 15.023757 -15.450754 -20.782414 13.922962 -10.807008 8.080226 -7.570313 -6.379480 -0.897561 19.046788 -10.205913 -5.884821 17.761080 7.329989 -5.679315 -17.146747 8.690706 -21.186636 -17.108712 7.295465 8.691806 11.154299 8.133559 0.223626 
0.005592 0.003925 0.011175 177.006345 21.925513 -10.650891 1.707514 6.528716 1.912547 0.254778 0.644145 -3.849597 -2.036733 18.440913 -1.067660 6.614481 0.877609 -2.789172 -0.538278 -4.598127 1.740854 -0.509877 -0.615013 -2.384678 -3.015544 -16.906337 -3.236724 9.464862 3.998230 11.400726 -0.320723 2.601552 -2.905189 1.624307 -1.302664 4.318173 -2.477142 1.098463 -3.634925 2.208729 -3.976128 6.889735 -2.400895 -4.425895 10.802979 -23.416331 14.742452 -7.116790 -32.480618 -11.500990 8.224607 11.785970 -20.285551 -15.979585 10.359646 -9.836639 5.672363 -10.383429 -7.107991 -3.723290 25.242903 -9.322687 -3.171595 31.195010 3.018956 3.402574 -15.604716 16.778303 -17.163077 -14.375724 6.797981 4.085920 13.637030 8.553263 -0.408535 
0.007220 0.003829 0.013372 176.882218 22.968418 -11.303788 2.184218 7.110247 2.789175 0.508586 -1.175858 -4.085865 -0.843096 14.334773 -0.023683 2.588925 4.515668 -4.128623 -0.716167 -5.335600 1.924379 -0.724565 -0.233041 -0.801032 -0.271991 -13.400315 -4.600013 8.667548 2.627074 12.261438 -0.753864 2.807222 -4.182341 1.968880 -1.799200 9.569063 -2.666858 1.110808 -7.200519 1.392050 -5.772312 5.902267 -1.635350 -4.419736 13.384869 -28.988636 8.278218 -3.982549 -42.890427 -6.005461 18.535229 6.494819 -21.545678 -3.682956 11.123793 -4.379652 10.724309 -16.058118 -13.441810 -13.007566 31.976361 -4.002282 1.721131 39.400912 -1.719179 12.336131 -7.375985 26.319688 -4.857457 -12.060961 3.521178 2.508454 19.878830 13.126234 -6.915075 
0.008662 0.003471 0.012715 176.821482 23.166163 -13.005967 3.028613 6.041840 3.905695 -0.681725 3.837855 -2.818034 -1.281098 12.378365 -0.449408 3.924133 6.299010 -3.438425 -0.853000 -4.680112 3.704258 -0.085864 -4.566859 -1.130117 -1.431224 -11.148040 -4.287252 5.924086 0.058885 9.436196 -0.170521 2.421261 -1.033439 1.039844 -1.685101 7.354681 -1.881131 0.162306 -6.004692 1.935848 -2.851841 5.943285 -1.933370 -6.448643 12.289813 -30.970594 2.568823 -1.251654 -47.890416 -5.091237 20.734975 3.660723 -27.497559 11.987396 -8.304868 -10.135441 15.929155 -11.252356 -7.128227 -12.516451 32.597955 3.656163 3.110834 46.086010 0.530965 20.916047 -1.435475 30.983525 11.395929 4.592865 8.906363 10.490326 12.725010 8.179986 -4.659544 
0.010396 0.003792 0.011113 176.762948 23.083882 -13.195371 3.236482 6.121282 3.917751 -0.741920 4.826658 -2.530063 -2.179065 11.460563 -0.832216 5.383600 7.729873 -3.622198 -0.824391 -4.286791 3.749354 -0.028901 -4.812804 -1.085585 -0.141009 -10.691468 -4.590223 3.956043 0.582213 9.002546 -0.231481 2.561407 -1.562589 1.193021 -1.873442 8.060668 -1.571240 0.454747 -6.560691 1.774601 -2.168853 6.538255 -2.404785 -7.978442 11.359653 -28.989551 -3.928528 1.251772 -48.507076 -6.811331 24.450827 -4.728403 -36.629247 24.079433 -6.928210 -9.906882 18.052323 -12.699792 -7.936695 -15.745887 31.130976 10.343372 5.287908 47.302732 5.050479 24.069791 6.002967 39.639822 21.474115 3.253221 8.870881 11.331224 13.444168 8.450754 -7.290392 
0.011098 0.003843 0.010005 176.476326 23.300670 -13.293532 3.467715 6.057461 3.661381 -0.706521 5.542439 -2.313175 -2.613681 10.515291 -0.926412 6.202373 8.737795 -3.537228 -0.754984 -4.426799 3.918516 0.174617 -5.045960 -1.541721 0.924524 -10.374789 -4.572895 1.995097 1.290063 8.704567 -0.235919 2.689510 -1.950752 1.397248 -2.051814 7.671452 -1.235584 0.550641 -6.690933 1.777815 -1.660631 7.098633 -2.778065 -9.080531 10.749941 -27.523557 -7.299876 1.941143 -50.744801 -8.886135 25.084163 -6.740648 -39.529957 26.126805 -5.979661 -8.573380 17.406834 -13.767665 -8.426643 -16.899706 30.118981 14.207305 5.496271 49.307155 9.645219 24.595490 6.414288 41.919047 21.694550 2.978834 7.823297 11.045133 14.047548 8.624630 -8.739344 
0.013627 0.004205 0.009182 176.475294 23.168364 -13.744650 3.760066 6.078688 4.068423 -0.916847 5.917007 -2.260729 -2.478971 9.905284 -0.876559 6.171373 9.499960 -3.508031 -0.788379 -4.518066 4.145631 0.348746 -5.350471 -1.245530 1.243365 -9.987995 -4.667242 1.080095 1.269212 8.142130 -0.224749 2.758532 -1.426471 1.210863 -1.668474 6.894741 -1.047484 0.457883 -5.940980 2.247358 -1.449624 6.753029 -3.073181 -9.463489 10.354441 -28.116818 -6.880373 2.254428 -53.336179 -9.538006 23.381201 -4.014426 -39.830955 21.447830 -3.712968 -7.212409 13.159936 -13.924873 -8.032333 -16.837377 30.352415 13.977973 5.224038 52.130146 11.268960 23.844339 2.649621 44.110077 15.984557 0.282639 7.145280 6.949734 14.204783 8.374425 -9.043106 
0.013758 0.003588 0.009861 176.452923 23.639200 -14.381533 3.959479 6.122423 4.998142 -1.148598 5.527722 -2.644527 -2.659681 10.026559 -0.717325 6.035322 9.331234 -3.678560 -0.844250 -4.609906 5.081055 0.408734 -5.600755 -1.431072 0.624522 -9.864372 -4.694185 2.199524 0.199467 8.177976 0.185708 2.684860 -1.050301 0.677352 -1.382489 6.806056 -1.212130 0.464511 -5.580369 2.286636 -2.126048 6.896947 -2.754366 -8.970758 9.656078 -29.153963 -6.280690 3.147811 -53.266971 -8.075752 22.877572 -4.373740 -39.044570 21.772317 -3.221885 -7.821918 11.383896 -13.314209 -7.436700 -17.169704 29.548826 13.649582 6.059547 51.712469 9.219589 24.803130 6.468834 45.400867 20.500373 -0.950664 7.727251 5.261352 13.462190 7.901459 -8.679734 
